<?xml version="1.0" encoding="UTF-8"?>
<svg width="24px" height="24px" viewBox="0 0 24 24" version="1.1" xmlns="http://www.w3.org/2000/svg">
    <g stroke="none" stroke-width="1" fill="none" fill-rule="evenodd">
        <path d="M17.5864 12.3694C17.5521 9.73113 19.7901 8.29926 19.9067 8.22181C18.6886 6.4006 16.8082 6.10307 16.1245 6.07617C14.5913 5.91225 13.1252 7.00432 12.3465 7.00432C11.5535 7.00432 10.3569 6.09836 9.05473 6.12901C7.35367 6.15952 5.78445 7.11441 4.91161 8.61768C3.10799 11.6951 4.45455 16.2336 6.19396 18.8235C7.06985 20.0897 8.08766 21.5101 9.43936 21.4614C10.7576 21.4087 11.2432 20.6322 12.8375 20.6322C14.4161 20.6322 14.8689 21.4614 16.2531 21.4324C17.6808 21.4087 18.5567 20.1424 19.4013 18.8657C20.4039 17.4054 20.8182 15.9691 20.8364 15.9018C20.8001 15.8879 17.6252 14.6655 17.5864 12.3694Z" fill="black"/>
        <path d="M15.3707 4.33645C16.0907 3.47054 16.5758 2.27847 16.4365 1.06641C15.4157 1.10841 14.1611 1.75697 13.4139 2.60453C12.7485 3.35939 12.1691 4.58295 12.3266 5.76352C13.4593 5.84571 14.6325 5.21864 15.3707 4.33645Z" fill="black"/>
    </g>
</svg>
