<?xml version="1.0" encoding="UTF-8"?>
<svg xmlns="http://www.w3.org/2000/svg" xml:space="preserve" width="210mm" height="210mm" version="1.1" viewBox="0 0 21000 21000">
 <g id="Capa_x0020_1" fill-rule="evenodd" clip-rule="evenodd">
  <g id="_1533105015360">
   <path fill="#FEFEFE" d="M3573.54 19709.67c3291.76,-885.08 6035,-3452.48 6980.67,-6981.8 945.67,-3529.32 -146.34,-7124.37 -2554.54,-9536.76 -3291.74,885.09 -6035.02,3452.49 -6980.7,6981.81 -945.67,3529.31 146.37,7124.38 2554.57,9536.75 3009.22,-960.78 5562.35,-3579.12 6508.04,-7108.43 945.67,-3529.33 43.76,-7073.45 -2081.91,-9410.12 -3009.22,960.79 -5562.38,3579.11 -6508.07,7108.44 -945.68,3529.31 -43.73,7073.44 2081.94,9410.11z"/>
   <path fill="black" d="M3573.54 19709.67c3291.76,-885.08 6035,-3452.48 6980.67,-6981.8 945.67,-3529.32 -146.34,-7124.37 -2554.54,-9536.76 -3291.74,885.09 -6035.02,3452.49 -6980.7,6981.81 -945.67,3529.31 146.37,7124.38 2554.57,9536.75 3009.22,-960.78 5562.35,-3579.12 6508.04,-7108.43 945.67,-3529.33 43.76,-7073.45 -2081.91,-9410.12 -3009.22,960.79 -5562.38,3579.11 -6508.07,7108.44 -945.68,3529.31 -43.73,7073.44 2081.94,9410.11z"/>
   <path fill="black" d="M3573.54 19709.67c2630.6,-1062.23 4928.98,-3748.83 5874.66,-7278.15 945.67,-3529.33 298.53,-7005.18 -1448.53,-9240.4 869.69,2000.14 926.5,5317.82 -19.17,8847.13 -945.68,3529.31 -2653.73,6374.09 -4406.96,7671.42zm4426.08 -16518.53c-2630.59,1062.26 -4928.97,3748.83 -5874.64,7278.13 -945.68,3529.3 -298.5,7005.15 1448.54,9240.37 -869.69,-2000.14 -926.52,-5317.81 19.16,-8847.1 945.67,-3529.29 2653.7,-6374.05 4406.94,-7671.4z"/>
   <path fill="black" d="M3573.52 19709.67c1284.21,-1423 2676.66,-4352.35 3622.33,-7881.67 945.68,-3529.31 1204.46,-6762.42 803.81,-8636.88 -1284.21,1423 -2676.66,4352.34 -3622.34,7881.66 -945.68,3529.32 -1204.45,6762.43 -803.8,8636.89z"/>
  </g>
  <g id="_1533105013488">
   <path fill="#FEFEFE" d="M17010.19 20677.61c2486.16,-2490.48 3613.52,-6201.92 2637.23,-9845.48 -976.29,-3643.57 -3808.33,-6294.09 -7206.65,-7207.83 -2486.15,2490.48 -3613.55,6201.93 -2637.26,9845.49 976.29,3643.57 3808.37,6294.08 7206.68,7207.82zm-1433.23 -3370.39l0.02 -0.01c272.03,-72.89 554.24,90.04 627.14,362.09l114.12 425.91c72.89,272.03 -90.04,554.24 -362.08,627.13l-0.02 0.01c-272.03,72.89 -554.24,-90.04 -627.13,-362.08l-114.13 -425.91c-72.89,-272.04 90.04,-554.25 362.08,-627.14zm-1531.98 -1434.84l807.62 -216.4c416.71,-111.66 849.01,137.92 960.66,554.63l0.01 0.03c111.66,416.71 -137.93,849.01 -554.64,960.66l-807.62 216.41c-416.69,111.65 -848.99,-137.94 -960.65,-554.65l-0.01 -0.03c-111.65,-416.71 137.94,-848.99 554.63,-960.65zm-1073.08 -1939.69l1156.32 -309.83c508.88,-136.35 1036.79,168.43 1173.15,677.33l0 0.02c136.36,508.88 -168.43,1036.78 -677.32,1173.14l-1156.31 309.83c-508.89,136.36 -1036.79,-168.43 -1173.15,-677.3l0 -0.03c-136.36,-508.89 168.43,-1036.8 677.31,-1173.16z"/>
   <path fill="black" d="M17010.19 20677.61c2486.16,-2490.48 3613.52,-6201.92 2637.23,-9845.48 -976.29,-3643.57 -3808.33,-6294.09 -7206.65,-7207.83 -2486.15,2490.48 -3613.55,6201.93 -2637.26,9845.49 976.29,3643.57 3808.37,6294.08 7206.68,7207.82zm-1433.23 -3370.39l0.02 -0.01c272.03,-72.89 554.24,90.04 627.14,362.09l114.12 425.91c72.89,272.03 -90.04,554.24 -362.08,627.13l-0.02 0.01c-272.03,72.89 -554.24,-90.04 -627.13,-362.08l-114.13 -425.91c-72.89,-272.04 90.04,-554.25 362.08,-627.14zm-1531.98 -1434.84l807.62 -216.4c416.71,-111.66 849.01,137.92 960.66,554.63l0.01 0.03c111.66,416.71 -137.93,849.01 -554.64,960.66l-807.62 216.41c-416.69,111.65 -848.99,-137.94 -960.65,-554.65l-0.01 -0.03c-111.65,-416.71 137.94,-848.99 554.63,-960.65zm-1073.08 -1939.69l1156.32 -309.83c508.88,-136.35 1036.79,168.43 1173.15,677.33l0 0.02c136.36,508.88 -168.43,1036.78 -677.32,1173.14l-1156.31 309.83c-508.89,136.36 -1036.79,-168.43 -1173.15,-677.3l0 -0.03c-136.36,-508.89 168.43,-1036.8 677.31,-1173.16zm3594.33 3109.45l-0.03 0.01c-272.03,72.89 -434.96,355.1 -362.07,627.14l114.12 425.92c72.89,272.03 355.1,434.96 627.14,362.07l0.02 0c272.03,-72.9 434.97,-355.11 362.08,-627.14l-114.13 -425.91c-72.89,-272.04 -355.1,-434.98 -627.13,-362.09zm609.31 -2008.59l-807.62 216.4c-416.7,111.66 -666.29,543.94 -554.63,960.65l0.01 0.04c111.65,416.7 543.95,666.29 960.65,554.64l807.62 -216.4c416.71,-111.66 666.29,-543.96 554.64,-960.67l-0.01 -0.03c-111.66,-416.71 -543.95,-666.28 -960.66,-554.63zm-40.53 -2216.36l-1156.32 309.84c-508.88,136.35 -813.67,664.26 -677.31,1173.16l0.01 0.02c136.35,508.87 664.25,813.66 1173.14,677.3l1156.32 -309.83c508.88,-136.36 813.67,-664.26 677.32,-1173.14l-0.01 -0.02c-136.36,-508.9 -664.26,-813.68 -1173.15,-677.33z"/>
   <path fill="black" d="M10999.93 1341.06c1233.12,585.61 1746.32,1955.55 1174.93,2884.16l543.64 111.53c224.31,-1297.48 175.77,-2860.45 -552.62,-3849.41l-1165.95 853.72z"/>
  </g>
 </g>
</svg>