<?xml version="1.0" encoding="UTF-8"?>
<svg width="24px" height="24px" viewBox="0 0 24 24" version="1.1" xmlns="http://www.w3.org/2000/svg">
    <g stroke="none" stroke-width="1" fill="none" fill-rule="evenodd">
        <path d="M20.64 12.2045C20.64 11.5645 20.5827 10.9445 20.48 10.3445H12V13.8445H16.8427C16.635 14.9645 16 15.9245 15.0473 16.5645V18.8245H17.9564C19.6582 17.2525 20.64 14.9445 20.64 12.2045Z" fill="#4285F4"/>
        <path d="M12 21C14.43 21 16.4673 20.1941 17.9564 18.8245L15.0473 16.5645C14.2418 17.1045 13.2109 17.4045 12 17.4045C9.65591 17.4045 7.67182 15.8045 6.96409 13.7045H3.95727V16.0445C5.43818 18.9545 8.48182 21 12 21Z" fill="#34A853"/>
        <path d="M6.96409 13.7045C6.78409 13.1445 6.68182 12.5445 6.68182 11.9245C6.68182 11.3045 6.78409 10.7045 6.96409 10.1445V7.80454H3.95727C3.34545 9.05454 3 10.4545 3 11.9245C3 13.3945 3.34545 14.7945 3.95727 16.0445L6.96409 13.7045Z" fill="#FBBC05"/>
        <path d="M12 6.44454C13.3255 6.44454 14.5091 6.91454 15.4382 7.79454L18 5.23454C16.4673 3.81454 14.43 3.00454 12 3.00454C8.48182 3.00454 5.43818 5.04454 3.95727 7.80454L6.96409 10.1445C7.67182 8.04454 9.65591 6.44454 12 6.44454Z" fill="#EA4335"/>
    </g>
</svg>
