<?xml version="1.0" encoding="UTF-8"?>
<svg xmlns="http://www.w3.org/2000/svg" viewBox="0 0 21000 21000">
  <g id="Capa_x0020_1" fill-rule="evenodd" clip-rule="evenodd">
    <path fill="#FEFEFE" d="M885.97 8321.57c549.07,949.02 1575.09,1587.63 2750.34,1587.63 1175.25,0 2201.27,-638.61 2750.34,-1587.63 -549.07,-949.03 -1575.09,-1587.64 -2750.34,-1587.64 -1175.25,0 -2201.27,638.61 -2750.34,1587.64zm19071.2 0c-549.07,949.02 -1575.09,1587.63 -2750.34,1587.63 -1175.25,0 -2201.27,-638.61 -2750.34,-1587.63 549.07,-949.03 1575.09,-1587.64 2750.34,-1587.64 1175.25,0 2201.27,638.61 2750.34,1587.64zm-15442.61 -5092.83c-282.82,1059.3 -8.88,2236.38 822.15,3067.41 831.03,831.02 2008.1,1104.96 3067.41,822.15 282.81,-1059.31 8.87,-2236.38 -822.15,-3067.41 -831.03,-831.03 -2008.11,-1104.97 -3067.41,-822.15zm7493.27 13783.84c172.59,0 312.48,139.88 312.48,312.48 0,172.59 -139.89,312.48 -312.48,312.48 -172.59,0 -312.48,-139.89 -312.48,-312.48 0,-172.6 139.89,-312.48 312.48,-312.48zm-3172.47 0c172.59,0 312.48,139.88 312.48,312.48 0,172.59 -139.89,312.48 -312.48,312.48 -172.59,0 -312.48,-139.89 -312.48,-312.48 0,-172.6 139.89,-312.48 312.48,-312.48zm3884.9 -6561.93c-484.03,164.04 -894.79,678.43 -1047,1401.65 -152.22,723.21 -7.25,1471.57 334.56,1983.29 484.03,-164.03 894.78,-678.43 1047,-1401.64 152.22,-723.22 7.24,-1471.58 -334.56,-1983.3zm3608.32 -7221.91c282.82,1059.3 8.88,2236.38 -822.15,3067.41 -831.03,831.02 -2008.1,1104.96 -3067.41,822.15 -282.81,-1059.31 -8.87,-2236.38 822.15,-3067.41 831.03,-831.03 2008.11,-1104.97 3067.41,-822.15zm-5906.92 -2012.14c949.02,549.07 1587.63,1575.09 1587.63,2750.34 0,1175.25 -638.61,2201.27 -1587.63,2750.33 -949.03,-549.06 -1587.64,-1575.08 -1587.64,-2750.33 0,-1175.25 638.61,-2201.27 1587.64,-2750.34zm-2298.73 9234.05c484.04,164.04 894.79,678.43 1047,1401.65 152.22,723.21 7.25,1471.57 -334.56,1983.29 -484.03,-164.03 -894.78,-678.43 -1047,-1401.64 -152.21,-723.22 -7.24,-1471.58 334.56,-1983.3zm-1736.28 -1817.06l1556.21 6090.13c-369.48,506.45 -587.73,1130.31 -587.73,1805.24 0,1693.54 1372.9,3066.44 3066.44,3066.44 1693.54,0 3066.44,-1372.9 3066.44,-3066.44 0,-674.93 -218.25,-1298.79 -587.73,-1805.24l1556.21 -6090.13c-2689.95,-2139.14 -5379.89,-2139.14 -8069.84,0z"/>
    <path fill="#000000" d="M885.97 8321.57c549.07,949.02 1575.09,1587.63 2750.34,1587.63 1175.25,0 2201.27,-638.61 2750.34,-1587.63 -549.07,-949.03 -1575.09,-1587.64 -2750.34,-1587.64 -1175.25,0 -2201.27,638.61 -2750.34,1587.64zm19071.2 0c-549.07,949.02 -1575.09,1587.63 -2750.34,1587.63 -1175.25,0 -2201.27,-638.61 -2750.34,-1587.63 549.07,-949.03 1575.09,-1587.64 2750.34,-1587.64 1175.25,0 2201.27,638.61 2750.34,1587.64zm-15442.61 -5092.83c-282.82,1059.3 -8.88,2236.38 822.15,3067.41 831.03,831.02 2008.1,1104.96 3067.41,822.15 282.81,-1059.31 8.87,-2236.38 -822.15,-3067.41 -831.03,-831.03 -2008.11,-1104.97 -3067.41,-822.15zm7493.27 13783.84c172.59,0 312.48,139.88 312.48,312.48 0,172.59 -139.89,312.48 -312.48,312.48 -172.59,0 -312.48,-139.89 -312.48,-312.48 0,-172.6 139.89,-312.48 312.48,-312.48zm-3172.47 0c172.59,0 312.48,139.88 312.48,312.48 0,172.59 -139.89,312.48 -312.48,312.48 -172.59,0 -312.48,-139.89 -312.48,-312.48 0,-172.6 139.89,-312.48 312.48,-312.48zm3884.9 -6561.93c-484.03,164.04 -894.79,678.43 -1047,1401.65 -152.22,723.21 -7.25,1471.57 334.56,1983.29 484.03,-164.03 894.78,-678.43 1047,-1401.64 152.22,-723.22 7.24,-1471.58 -334.56,-1983.3zm3608.32 -7221.91c282.82,1059.3 8.88,2236.38 -822.15,3067.41 -831.03,831.02 -2008.1,1104.96 -3067.41,822.15 -282.81,-1059.31 -8.87,-2236.38 822.15,-3067.41 831.03,-831.03 2008.11,-1104.97 3067.41,-822.15zm-5906.92 -2012.14c949.02,549.07 1587.63,1575.09 1587.63,2750.34 0,1175.25 -638.61,2201.27 -1587.63,2750.33 -949.03,-549.06 -1587.64,-1575.08 -1587.64,-2750.33 0,-1175.25 638.61,-2201.27 1587.64,-2750.34zm-2298.73 9234.05c484.04,164.04 894.79,678.43 1047,1401.65 152.22,723.21 7.25,1471.57 -334.56,1983.29 -484.03,-164.03 -894.78,-678.43 -1047,-1401.64 -152.21,-723.22 -7.24,-1471.58 334.56,-1983.3zm-1736.28 -1817.06l1556.21 6090.13c-369.48,506.45 -587.73,1130.31 -587.73,1805.24 0,1693.54 1372.9,3066.44 3066.44,3066.44 1693.54,0 3066.44,-1372.9 3066.44,-3066.44 0,-674.93 -218.25,-1298.79 -587.73,-1805.24l1556.21 -6090.13c-2689.95,-2139.14 -5379.89,-2139.14 -8069.84,0z"/>
  </g>
  <!-- Simplified to inline fills; removed DOCTYPE, defs and style for Flutter compatibility -->
</svg>