<?xml version="1.0" encoding="UTF-8"?>
<!DOCTYPE svg PUBLIC "-//W3C//DTD SVG 1.1//EN" "http://www.w3.org/Graphics/SVG/1.1/DTD/svg11.dtd">
<!-- Creator: CorelDRAW (Versión de evaluación) -->
<svg xmlns="http://www.w3.org/2000/svg" xml:space="preserve" width="210mm" height="210mm" version="1.1" style="shape-rendering:geometricPrecision; text-rendering:geometricPrecision; image-rendering:optimizeQuality; fill-rule:evenodd; clip-rule:evenodd"
viewBox="0 0 21000 21000"
 xmlns:xlink="http://www.w3.org/1999/xlink"
 xmlns:xodm="http://www.corel.com/coreldraw/odm/2003">
 <defs>
  <style type="text/css">
   <![CDATA[
    .fil0 {fill:#2B2A29}
   ]]>
  </style>
 </defs>
 <g id="Capa_x0020_1">
  <metadata id="CorelCorpID_0Corel-Layer"/>
  <path class="fil0" d="M10972.75 7139.83c1540.33,0 2862.99,932.02 3434.82,2262.85 160.35,373.2 506.07,602.57 912.26,605.2 1211.29,7.83 2400.49,459.8 3303.04,1362.34 1881.53,1881.53 1804.79,5008.85 -171.42,6985.06 -1976.21,1976.21 -5103.53,2052.96 -6985.06,171.42 -902.55,-902.55 -1354.51,-2091.75 -1362.34,-3303.04 -2.63,-406.2 -231.99,-751.9 -605.2,-912.26 -1330.83,-571.83 -2262.85,-1894.49 -2262.85,-3434.82 0,-2063.74 1673.01,-3736.75 3736.75,-3736.75zm3317.36 9233.47l2179.37 -2179.37c106.11,-106.11 279.76,-106.12 385.88,0 106.12,106.12 106.12,279.77 0,385.88l-2179.37 2179.37c-106.11,106.12 -279.76,106.13 -385.88,0 -106.13,-106.12 -106.12,-279.76 0,-385.88zm-2377.2 -5940.04c764.08,0 1383.49,619.4 1383.49,1383.48 0,764.08 -619.41,1383.49 -1383.49,1383.49 -764.08,0 -1383.48,-619.41 -1383.48,-1383.49 0,-764.08 619.4,-1383.48 1383.48,-1383.48z"/>
  <path class="fil0" d="M3090.17 1156.71l338.05 338.04 171.03 -171.03c106.12,-106.12 279.76,-106.12 385.88,0 106.13,106.12 106.12,279.77 0,385.88l-171.03 171.04 212.44 212.44 171.04 -171.04c106.11,-106.11 279.76,-106.12 385.88,0.01 106.12,106.12 106.11,279.76 0,385.88l-171.04 171.03 212.45 212.44 171.03 -171.03c106.12,-106.11 279.76,-106.12 385.88,0 106.13,106.12 106.12,279.77 0,385.88l-171.03 171.04 443.84 443.84 -278.5 278.49 5517.84 5517.84 -1280.3 1280.31 -5517.84 -5517.83 -278.51 278.49 -443.84 -443.84 -171.02 171.03c-106.13,106.12 -279.77,106.13 -385.89,0.01 -106.12,-106.13 -106.12,-279.77 0,-385.89l171.03 -171.03 -212.44 -212.44 -171.04 171.02c-106.11,106.13 -279.75,106.13 -385.88,0.01 -106.12,-106.12 -106.11,-279.76 0.01,-385.89l171.03 -171.02 -212.45 -212.45 -171.02 171.03c-106.13,106.12 -279.77,106.13 -385.89,0.01 -106.12,-106.13 -106.12,-279.77 0,-385.89l171.03 -171.03 -338.04 -338.05c-153.18,-153.17 -153.18,-403.81 0,-556.99l1280.31 -1280.31c153.17,-153.17 403.81,-153.18 556.99,0z"/>
 </g>
</svg>
