<?xml version="1.0" encoding="UTF-8"?>
<svg xmlns="http://www.w3.org/2000/svg" xml:space="preserve" width="210mm" height="210mm" version="1.1" viewBox="0 0 21000 21000">
 <g id="Capa_x0020_1" fill-rule="evenodd" clip-rule="evenodd">
  <path fill="#000000" d="M16051.43 12337.36l0 8276.54 -4190.95 0 0 -3657.64c0,-740.9 -606.19,-1347.09 -1347.09,-1347.09l-0.01 0c-740.9,0 -1347.09,606.19 -1347.09,1347.09l0 3657.64 -4190.93 0 0 -8276.54 5372.68 -4737.82c95.03,-83.8 235.68,-83.78 330.7,0l5372.69 4737.82zm-2185.59 3271.81l-0.07 0c-740.89,0 -1347.06,606.17 -1347.06,1347.06l0 1347.07 2694.19 0 0 -1347.07c0,-740.89 -606.17,-1347.06 -1347.06,-1347.06zm-6704.91 0l0.07 0c740.9,0 1347.06,606.17 1347.06,1347.06l0 1347.07 -2694.19 0 0 -1347.07c0,-740.89 606.18,-1347.06 1347.06,-1347.06z"/>
  <path fill="#000000" d="M10678.74 6349.54l6928.36 6109.67c53.7,47.35 82.28,108.11 84.53,179.67 2.24,71.57 -22.48,133.99 -73.11,184.62l-177.14 177.14c-93.48,93.48 -242.97,98.16 -342.12,10.73l-6420.52 -5661.83c-95.03,-83.8 -235.67,-83.8 -330.7,0l-6420.52 5661.84c-99.15,87.43 -248.64,82.74 -342.12,-10.73l-177.15 -177.14c-50.63,-50.63 -75.35,-113.05 -73.1,-184.62 2.24,-71.56 30.82,-132.31 84.52,-179.67l6928.37 -6109.68c95.03,-83.8 235.67,-83.8 330.7,0z"/>
  <rect fill="#000000" x="10038.97" y="468.6" width="948.83" height="6438.26"/>
  <rect fill="#000000" transform="matrix(4.39401E-14 -2.81185 0.981768 4.40682E-14 8447.3 3039.47)" width="337.44" height="4208.92"/>
 </g>
</svg>
