<?xml version="1.0" encoding="UTF-8"?>
<svg version="1.1" xmlns="http://www.w3.org/2000/svg" width="744" height="744">
<path d="M0 0 C2.07128551 1.6005388 4.02862739 3.27430896 6 5 C9.41002208 3.74649014 12.18239166 2.30774442 15.125 0.1875 C30.99651484 -10.53296307 49.81642989 -13.51421093 68.48486328 -9.97021484 C82.48672523 -6.89383039 94.00137358 -0.26501966 104 10 C104.69480469 10.66257812 105.38960937 11.32515625 106.10546875 12.0078125 C117.91620133 24.02414777 124.09500456 41.85668738 124.14044189 58.47579956 C124.14615204 59.73453888 124.15186218 60.9932782 124.15774536 62.29016113 C124.1589904 63.66723623 124.16011556 65.04431144 124.16113281 66.42138672 C124.16576701 67.88563154 124.17079248 69.34987518 124.17617798 70.81411743 C124.18924294 74.77699031 124.19573493 78.7398463 124.20018864 82.70273733 C124.20312793 85.18215884 124.20723425 87.66157581 124.21169281 90.14099503 C124.22534998 97.90922392 124.23502627 105.67744235 124.2388947 113.44568241 C124.24337618 122.39382884 124.26093568 131.34182258 124.2898953 140.2899226 C124.31154384 147.22093575 124.32160061 154.15190603 124.32293582 161.08295262 C124.32398124 165.21636093 124.32983341 169.34962536 124.34775543 173.48299789 C124.36429198 177.37203077 124.36636474 181.2608124 124.35761642 185.14986801 C124.35684912 186.57160111 124.36114802 187.99334804 124.37107468 189.41504669 C124.43005349 198.39319613 124.34639578 206.88307673 118.75 214.3125 C113.37312048 219.56717771 107.77015741 222.10630272 100.25 222.25 C92.35578733 222.14551777 86.57568563 219.70240575 81 214 C77.3135195 208.08749773 75.87515832 202.92502066 75.87542725 195.96762085 C75.87286423 194.73127899 75.87030121 193.49493713 75.86766052 192.22113037 C75.86973039 190.85363762 75.87185314 189.48614494 75.87402344 188.11865234 C75.87262818 186.67617742 75.87072855 185.23370291 75.86836243 183.79122925 C75.86386834 180.68539476 75.8620094 177.57957347 75.86190033 174.47373581 C75.8607584 169.55591242 75.84790742 164.63816384 75.83233643 159.72036743 C75.82976357 158.88962499 75.82719072 158.05888255 75.8245399 157.20296609 C75.81927329 155.50416432 75.81398781 153.8053626 75.80868387 152.10656095 C75.77361223 140.66005904 75.7470186 129.21364997 75.74951172 117.76708984 C75.75110362 110.04297453 75.73498657 102.31911451 75.69880509 94.59508097 C75.6803961 90.51126815 75.67095749 86.42788128 75.68328094 82.3440361 C75.69477553 78.49750932 75.6828805 74.65174302 75.65364647 70.80531693 C75.64704347 69.4001528 75.64880783 67.99491822 75.65994453 66.58978271 C75.72990856 56.95658117 74.75503475 48.8292034 67.74609375 41.7109375 C61.1582736 37.8986964 55.56162898 36.79891252 48 38 C41.8803588 39.7558031 37.34380469 43.61157588 34 49 C32.348633 53.24621585 31.75111975 56.76595166 31.75517273 61.31085205 C31.75123505 62.55835739 31.74729736 63.80586273 31.74324036 65.09117126 C31.74884859 66.46084655 31.75460613 67.83052122 31.76049805 69.20019531 C31.75938428 70.65281777 31.75732509 72.10543976 31.75439453 73.55805969 C31.74968161 76.67970542 31.75078282 79.80127585 31.75617027 82.92292023 C31.76379799 87.86612844 31.75310368 92.80919258 31.7389679 97.75238037 C31.70128144 111.80676838 31.68302344 125.86109103 31.69458008 139.91552734 C31.7008095 147.68285726 31.68914987 155.44995408 31.65813476 163.21722674 C31.63954525 168.12369057 31.64273675 173.02949084 31.66230237 177.93594313 C31.6692188 180.99905866 31.65515922 184.06182006 31.63535309 187.12486839 C31.63033598 188.53649435 31.63371214 189.9481813 31.64648628 191.35975838 C31.7182338 199.90081339 31.12783122 206.91544777 26 214 C20.45165281 219.34217884 14.91699545 221.99388466 7.1875 222.375 C0.79027192 222.20210194 -4.28699104 220.48002155 -9.046875 216.12890625 C-17.67107224 206.70287249 -17.14753366 196.88952383 -17.08178711 184.69604492 C-17.0782263 183.35165011 -17.0751416 182.00725397 -17.07249451 180.66285706 C-17.06596728 177.77805684 -17.05642317 174.89328817 -17.04459953 172.00850487 C-17.02622463 167.43913333 -17.01668565 162.86976921 -17.00868225 158.30036926 C-16.98459394 145.31015706 -16.94872683 132.31999113 -16.90405273 119.32983398 C-16.87943007 112.14747545 -16.86211324 104.96513504 -16.85249335 97.78274041 C-16.8459848 93.24858221 -16.83049854 88.71457448 -16.80817592 84.18046796 C-16.79636907 81.34911507 -16.79307409 78.51779773 -16.79207802 75.68642235 C-16.78893847 73.76562602 -16.77580204 71.84485399 -16.76226807 69.92410278 C-16.77295164 60.38234749 -16.88805167 51.25012614 -23.25 43.6953125 C-27.97109332 39.12175334 -32.47427719 37.76300142 -39 37.5 C-46.22467641 37.77331689 -50.62560941 39.73113788 -55.8125 44.6875 C-61.39631934 53.14299786 -61.42767726 61.58687319 -61.36889648 71.48071289 C-61.37136854 72.92717269 -61.37521105 74.37363069 -61.38031006 75.82008362 C-61.38860757 78.91879845 -61.38787526 82.01732924 -61.38012505 85.116045 C-61.3684828 90.02116936 -61.38075317 94.92605991 -61.39674377 99.8311615 C-61.43283372 112.01012795 -61.43916821 124.18908791 -61.43664551 136.36810303 C-61.43493247 145.84430008 -61.44209665 155.32030448 -61.47662407 164.79644769 C-61.49337376 169.66744176 -61.49166264 174.53796476 -61.47580135 179.40895665 C-61.46998789 182.44351334 -61.48077335 185.4778485 -61.49604797 188.51236534 C-61.49976096 189.913549 -61.49670454 191.31477046 -61.48617744 192.71591949 C-61.42285425 201.74963749 -61.85056554 208.17859234 -67.9296875 215.2421875 C-74.41609288 220.68660004 -79.59889567 222.56051724 -88.12109375 222.375 C-95.51093807 221.41241512 -101.16083836 217.59084908 -105.84375 211.94140625 C-108.61627345 207.28618952 -109.25098457 202.77933179 -109.26069641 197.43685913 C-109.26778122 196.13334503 -109.27486603 194.82983093 -109.28216553 193.48681641 C-109.27987196 192.05419887 -109.27736229 190.62158166 -109.2746582 189.18896484 C-109.27900857 187.67062123 -109.2841928 186.15227982 -109.29014587 184.63394165 C-109.30351742 180.5178952 -109.30411622 176.40194069 -109.30158257 172.28587675 C-109.30051085 168.84203438 -109.30540179 165.39821046 -109.310188 161.95437205 C-109.32127845 153.82161805 -109.32172426 145.68891024 -109.31567383 137.55615234 C-109.3096442 129.18901171 -109.32192034 120.82203967 -109.3432439 112.4549278 C-109.36091357 105.254668 -109.36685252 98.05446159 -109.36360615 90.85418093 C-109.36180047 86.56138503 -109.36435688 82.26870919 -109.37832069 77.97593307 C-109.39098072 73.93258641 -109.38887848 69.88950016 -109.37590981 65.84615707 C-109.37356152 64.37086394 -109.37621518 62.89555201 -109.38453293 61.42028046 C-109.44722196 49.42633225 -107.91508724 38.60046767 -102.3125 27.875 C-101.96437256 27.19759766 -101.61624512 26.52019531 -101.25756836 25.82226562 C-92.45199816 9.20514282 -77.89702768 -2.77828006 -60 -8.4375 C-39.26579062 -14.33511313 -18.30012272 -11.14222662 0 0 Z " fill="#2F6969" transform="translate(241,268)"/>
<path d="M0 0 C10.39269632 4.65314017 15.11784932 15.69127739 19.85522461 25.33007812 C20.55472336 26.7307711 21.2552843 28.13093405 21.95681763 29.53060913 C23.84522412 33.30571082 25.71880886 37.08799151 27.58969188 40.87180138 C29.55224257 44.83458074 31.52851978 48.790503 33.50331116 52.74719238 C37.23495668 60.2290821 40.9543312 67.71700122 44.66926628 75.20719957 C48.90164827 83.73918344 53.14777102 92.26430218 57.39502513 100.78888988 C66.12624792 118.31393778 74.84029817 135.84747664 83.54296875 153.38671875 C90.99882124 139.48082119 98.06222928 125.39070043 105.04343784 111.24248099 C107.40857352 106.44929952 109.7805561 101.6595552 112.15658569 96.87176514 C112.50539689 96.16885259 112.85420808 95.46594004 113.21358931 94.74172711 C114.28426103 92.58429924 115.35501956 90.42691447 116.42578125 88.26953125 C120.81810456 79.41937836 125.20527544 70.56678687 129.57226562 61.70410156 C132.78394123 55.18622519 136.00843879 48.67487386 139.24788797 42.17075419 C140.95331892 38.74538347 142.65223951 35.31713307 144.33543777 31.88077545 C145.91395005 28.65842554 147.50937014 25.44502112 149.11775017 22.23748016 C149.97755648 20.51191046 150.81946389 18.77745759 151.66062927 17.04272461 C155.45491748 9.53287314 159.6605718 4.06870311 167.1171875 -0.02734375 C173.72345348 -1.62306017 181.75824527 -1.88316146 188.04296875 0.94921875 C194.10595798 4.6623128 198.21220781 9.95357804 200.07393265 16.828125 C201.7182509 25.79788739 198.69608781 33.3604836 194.65722656 41.19921875 C194.13037891 42.25850586 193.60353127 43.31779297 193.06071854 44.40917969 C191.88021302 46.77951537 190.69370548 49.14578836 189.49781799 51.50830078 C187.41991386 55.61974069 185.3813207 59.75013017 183.34606934 63.8828125 C173.92615299 82.99381379 164.40636094 102.05568126 154.89747238 121.12252808 C149.61618147 131.71280519 144.34434925 142.30767969 139.08462977 152.90868759 C135.35566631 160.42244975 131.61595464 167.93080188 127.86833501 175.43527603 C125.64120063 179.89577469 123.41879417 184.35847985 121.20809174 188.82714844 C119.13537885 193.01637061 117.04937148 197.1987024 114.953228 201.37624741 C114.19053119 202.90196814 113.43256117 204.43006317 112.67989731 205.96075821 C108.0503116 215.36755623 103.41604944 224.5104855 94.41796875 230.44921875 C87.23076893 232.18805742 78.9597081 232.91609453 72.04296875 229.82421875 C65.4914623 225.65092925 61.65310757 219.35052783 58.30426025 212.51730347 C57.92077447 211.75530958 57.53728868 210.9933157 57.14218211 210.20823109 C55.87074237 207.67585541 54.61363799 205.13664279 53.35644531 202.59716797 C52.44341397 200.77133216 51.52950634 198.94593433 50.61479187 197.12094116 C48.1411629 192.17937596 45.67995223 187.23172017 43.22106266 182.28280783 C40.64380231 177.10068892 38.05548032 171.92410045 35.46844482 166.74685669 C31.12779462 158.05636185 26.79448617 149.36224027 22.46630859 140.66552734 C16.36192173 128.39988595 10.24371349 116.14117742 4.12302065 103.88366675 C-0.11749114 95.39018813 -4.35471405 86.89506842 -8.59130573 78.39963388 C-9.61825679 76.34037088 -10.6452976 74.28115263 -11.67242718 72.22197866 C-14.59917586 66.35417428 -17.52386687 60.48535368 -20.44524193 54.61487198 C-21.33063666 52.8363659 -22.21669311 51.05818906 -23.1034565 49.28036499 C-24.31291653 46.85521931 -25.51991515 44.4288645 -26.72625732 42.00216675 C-27.07819711 41.29778941 -27.4301369 40.59341207 -27.79274154 39.86768997 C-32.17950242 31.02551238 -34.42883041 23.39330605 -31.65234375 13.52734375 C-26.02354443 0.71697287 -13.0775975 -3.2642016 0 0 Z " fill="#47618E" transform="translate(411.45703125,255.61328125)"/>
</svg>
