<?xml version="1.0" encoding="UTF-8"?>
<!DOCTYPE svg PUBLIC "-//W3C//DTD SVG 1.1//EN" "http://www.w3.org/Graphics/SVG/1.1/DTD/svg11.dtd">
<!-- Creator: CorelDRAW (Versión de evaluación) -->
<svg xmlns="http://www.w3.org/2000/svg" xml:space="preserve" width="210mm" height="210mm" version="1.1" style="shape-rendering:geometricPrecision; text-rendering:geometricPrecision; image-rendering:optimizeQuality; fill-rule:evenodd; clip-rule:evenodd"
viewBox="0 0 21000 21000"
 xmlns:xlink="http://www.w3.org/1999/xlink"
 xmlns:xodm="http://www.corel.com/coreldraw/odm/2003">
 <defs>
  <style type="text/css">
   <![CDATA[
    .fil0 {fill:#2B2A29}
   ]]>
  </style>
 </defs>
 <g id="Capa_x0020_1">
  <metadata id="CorelCorpID_0Corel-Layer"/>
  <path class="fil0" d="M18711.29 11064.08l1696.73 639.09c182.71,68.81 297.85,235.21 297.85,430.47l0 3409.19c0,253.36 -206.63,460 -460,460l-1696.72 0c-253.37,0 -460,-206.64 -460,-460l0 -4048.28c0,-155.73 70.2,-289.66 198.25,-378.27 128.07,-88.61 278.15,-107.1 423.89,-52.2zm686.21 3598.36c214.56,0 388.5,173.94 388.5,388.5 0,214.56 -173.94,388.49 -388.5,388.49 -214.56,0 -388.49,-173.93 -388.49,-388.49 0,-214.56 173.93,-388.5 388.49,-388.5zm-3460.87 0c214.56,0 388.49,173.94 388.49,388.5 0,214.56 -173.93,388.49 -388.49,388.49 -214.56,0 -388.5,-173.93 -388.5,-388.49 0,-214.56 173.94,-388.5 388.5,-388.5zm-3460.88 0c214.56,0 388.5,173.94 388.5,388.5 0,214.56 -173.94,388.49 -388.5,388.49 -214.56,0 -388.5,-173.93 -388.5,-388.49 0,-214.56 173.94,-388.5 388.5,-388.5zm-3460.85 0c214.56,0 388.5,173.94 388.5,388.5 0,214.56 -173.94,388.49 -388.5,388.49 -214.56,0 -388.5,-173.93 -388.5,-388.49 0,-214.56 173.94,-388.5 388.5,-388.5zm-3460.87 0c214.56,0 388.5,173.94 388.5,388.5 0,214.56 -173.94,388.49 -388.5,388.49 -214.56,0 -388.49,-173.93 -388.49,-388.49 0,-214.56 173.93,-388.5 388.49,-388.5zm-3460.87 0c214.56,0 388.49,173.94 388.49,388.5 0,214.56 -173.93,388.49 -388.49,388.49 -214.56,0 -388.5,-173.93 -388.5,-388.49 0,-214.56 173.94,-388.5 388.5,-388.5zm17304.34 -2777.65c214.56,0 388.5,173.93 388.5,388.49 0,214.56 -173.94,388.5 -388.5,388.5 -214.56,0 -388.49,-173.94 -388.49,-388.5 0,-214.56 173.93,-388.49 388.49,-388.49zm-3460.87 -1306.57c214.56,0 388.49,173.94 388.49,388.5 0,214.56 -173.93,388.5 -388.49,388.5 -214.56,0 -388.5,-173.94 -388.5,-388.5 0,-214.56 173.94,-388.5 388.5,-388.5zm-3460.88 -1306.58c214.56,0 388.5,173.93 388.5,388.49 0,214.56 -173.94,388.5 -388.5,388.5 -214.56,0 -388.5,-173.94 -388.5,-388.5 0,-214.56 173.94,-388.49 388.5,-388.49zm-3460.85 -1306.57c214.56,0 388.5,173.94 388.5,388.5 0,214.56 -173.94,388.5 -388.5,388.5 -214.56,0 -388.5,-173.94 -388.5,-388.5 0,-214.56 173.94,-388.5 388.5,-388.5zm-3460.87 -1306.57c214.56,0 388.5,173.94 388.5,388.5 0,214.56 -173.94,388.49 -388.5,388.49 -214.56,0 -388.49,-173.93 -388.49,-388.49 0,-214.56 173.93,-388.5 388.49,-388.5zm-3460.9 -1306.61c214.57,0 388.48,173.96 388.48,388.52 0,214.57 -173.91,388.47 -388.48,388.47 -214.56,0 -388.52,-173.9 -388.52,-388.47 0,-214.56 173.96,-388.52 388.52,-388.52zm15151.86 5474.92l0 4716.02c0,253.36 -206.64,460 -460,460l-1696.72 0c-253.36,0 -460,-206.64 -460,-460l0 -5356.59c0,-155.79 70.26,-289.78 198.4,-378.38 128.15,-88.59 278.31,-106.99 424.07,-51.97l1696.72 640.56c182.56,68.92 297.53,235.22 297.53,430.36zm-3460.87 -1306.59l0 6022.61c0,253.36 -206.64,460 -460.01,460l-1696.71 0c-253.36,0 -460,-206.64 -460,-460l0 -6663.16c0,-155.8 70.26,-289.79 198.41,-378.38 128.14,-88.59 278.31,-107.01 424.07,-51.98l1696.71 640.55c182.57,68.93 297.53,235.22 297.53,430.36zm-3460.87 -1306.56l0 7329.17c0,253.36 -206.64,460 -460,460l-1696.72 0c-253.36,0 -460,-206.64 -460,-460l0 -7969.75c0,-155.79 70.27,-289.78 198.42,-378.37 128.13,-88.6 278.31,-107.01 424.05,-51.98l1696.72 640.57c182.56,68.91 297.53,235.2 297.53,430.36zm-3460.86 -1306.59l0 8635.76c0,253.36 -206.64,460 -460,460l-1696.72 0c-253.36,0 -460,-206.64 -460,-460l0 -9276.31c0,-155.8 70.26,-289.79 198.41,-378.38 128.14,-88.59 278.31,-107.01 424.05,-51.98l1696.73 640.55c182.55,68.93 297.53,235.22 297.53,430.36zm-3460.88 -1306.56l0 9942.32c0,253.36 -206.63,460 -460,460l-1696.72 0c-253.37,0 -460,-206.64 -460,-460l0 -10582.9c0,-155.79 70.26,-289.78 198.41,-378.37 128.14,-88.6 278.31,-107.01 424.06,-51.98l1696.71 640.57c182.57,68.91 297.54,235.2 297.54,430.36z"/>
 </g>
</svg>
