<?xml version="1.0" encoding="UTF-8"?>
<!DOCTYPE svg PUBLIC "-//W3C//DTD SVG 1.1//EN" "http://www.w3.org/Graphics/SVG/1.1/DTD/svg11.dtd">
<!-- Creator: CorelDRAW (Versión de evaluación) -->
<svg xmlns="http://www.w3.org/2000/svg" xml:space="preserve" width="210mm" height="210mm" version="1.1" style="shape-rendering:geometricPrecision; text-rendering:geometricPrecision; image-rendering:optimizeQuality; fill-rule:evenodd; clip-rule:evenodd"
viewBox="0 0 21000 21000"
 xmlns:xlink="http://www.w3.org/1999/xlink"
 xmlns:xodm="http://www.corel.com/coreldraw/odm/2003">
 <defs>
  <style type="text/css">
   <![CDATA[
    .fil0 {fill:black}
   ]]>
  </style>
 </defs>
 <g id="Capa_x0020_1">
  <metadata id="CorelCorpID_0Corel-Layer"/>
  <polygon class="fil0" points="678.83,10167.04 1114.07,9589.35 1834.2,10246.17 2261.53,9905.89 3820.49,9747.62 4042.07,8766.35 4651.41,6455.6 6550.65,6526.82 7349.91,5347.71 7983,5205.27 9082.97,5735.47 10546.97,5094.48 10855.6,4374.35 12596.57,2071.52 13142.6,2024.04 13585.76,2696.69 15738.23,2142.74 15809.45,2522.59 17249.71,2237.7 18682.06,1145.64 20248.93,1216.86 19663.33,2213.96 20153.97,4176.51 19093.56,5743.39 18507.96,8718.86 18824.5,10301.57 17811.57,14400.76 18167.68,15951.81 17210.14,16830.21 18033.15,18863.98 18104.37,19433.75 16949,19813.6 13696.55,18207.16 12683.62,18808.59 10752.72,17985.58 9692.31,17605.73 9288.72,18222.99 5711.82,15160.46 4675.15,13348.27 1573.06,10879.25 "/>
 </g>
</svg>
