<?xml version="1.0" encoding="UTF-8"?>
<svg xmlns="http://www.w3.org/2000/svg" width="24px" height="24px" viewBox="0 0 21000 21000" version="1.1">
<g id="Capa_x0020_1" fill-rule="evenodd" clip-rule="evenodd">
<polygon fill="#000000" points="8815.16,10271.47 9848.59,9031.58 12213.64,9438.28 14178.01,8948.54 15171.14,10708.22 13486.03,10213.06 11391.99,11066.19 9718.98,10268.46 8755.06,10800.28"/>
<path fill="#000000" d="M144.35 17520.63l6096.24 -4160.24 2487.73 -2904.71 -73.26 644.6 1063.92 -631.82 1673.01 797.73 2094.04 -853.13 1752.76 515.04 1678.52 2874.09 3583.78 3718.44 -20356.74 0zm10161.79 -5942.69l-276.64 1198.76 -984.27 1936.46 1184.06 -1905.72 76.85 -1229.5zm3680.96 -337.86l1140.2 3002.92 2149.69 2312.95 -1945.6 -2408.19 -1344.29 -2907.68zm-1910.56 219.99l224.21 2619.66 802.73 2530.64 -571.44 -2571.46 -455.5 -2578.84zm-7231.65 4320.36l2095.26 -1374.17 1632.67 -2068.05 -1387.77 2258.53 -2340.16 1183.69z"/>
</g>
</svg>